<svg width="33" height="32" viewBox="0 0 33 32" fill="none" xmlns="http://www.w3.org/2000/svg">
<g clip-path="url(#clip0_13_2443)">
<mask id="mask0_13_2443" style="mask-type:luminance" maskUnits="userSpaceOnUse" x="0" y="0" width="33" height="32">
<path d="M32.6667 0H0.666687V32H32.6667V0Z" fill="white"/>
</mask>
<g mask="url(#mask0_13_2443)">
<path d="M16.6656 29.9978C26 29.9978 30.6645 23.7303 30.6645 15.9989C30.6645 8.26751 26 2 16.6656 2C7.33112 2 2.66669 8.26751 2.66669 15.9989C2.66669 23.7303 7.33112 29.9978 16.6656 29.9978Z" fill="url(#paint0_radial_13_2443)"/>
<path d="M16.6656 29.9978C26 29.9978 30.6645 23.7303 30.6645 15.9989C30.6645 8.26751 26 2 16.6656 2C7.33112 2 2.66669 8.26751 2.66669 15.9989C2.66669 23.7303 7.33112 29.9978 16.6656 29.9978Z" fill="url(#paint1_radial_13_2443)"/>
<path d="M16.6656 29.9978C26 29.9978 30.6645 23.7303 30.6645 15.9989C30.6645 8.26751 26 2 16.6656 2C7.33112 2 2.66669 8.26751 2.66669 15.9989C2.66669 23.7303 7.33112 29.9978 16.6656 29.9978Z" fill="url(#paint2_radial_13_2443)"/>
<path d="M16.6656 29.9978C26 29.9978 30.6645 23.7303 30.6645 15.9989C30.6645 8.26751 26 2 16.6656 2C7.33112 2 2.66669 8.26751 2.66669 15.9989C2.66669 23.7303 7.33112 29.9978 16.6656 29.9978Z" fill="url(#paint3_radial_13_2443)" fill-opacity="0.6"/>
<path d="M16.6656 29.9978C26 29.9978 30.6645 23.7303 30.6645 15.9989C30.6645 8.26751 26 2 16.6656 2C7.33112 2 2.66669 8.26751 2.66669 15.9989C2.66669 23.7303 7.33112 29.9978 16.6656 29.9978Z" fill="url(#paint4_radial_13_2443)"/>
<path d="M16.6656 29.9978C26 29.9978 30.6645 23.7303 30.6645 15.9989C30.6645 8.26751 26 2 16.6656 2C7.33112 2 2.66669 8.26751 2.66669 15.9989C2.66669 23.7303 7.33112 29.9978 16.6656 29.9978Z" fill="url(#paint5_radial_13_2443)"/>
<path d="M16.6656 29.9978C26 29.9978 30.6645 23.7303 30.6645 15.9989C30.6645 8.26751 26 2 16.6656 2C7.33112 2 2.66669 8.26751 2.66669 15.9989C2.66669 23.7303 7.33112 29.9978 16.6656 29.9978Z" fill="url(#paint6_radial_13_2443)"/>
<path d="M16.6656 29.9978C26 29.9978 30.6645 23.7303 30.6645 15.9989C30.6645 8.26751 26 2 16.6656 2C7.33112 2 2.66669 8.26751 2.66669 15.9989C2.66669 23.7303 7.33112 29.9978 16.6656 29.9978Z" fill="url(#paint7_radial_13_2443)"/>
<g opacity="0.5" filter="url(#filter0_f_13_2443)">
<path d="M8.16669 13.5C8.16669 13.5 8.41669 11.5 10.6667 11.5C12.9167 11.5 13.1667 13.5 13.1667 13.5" stroke="#9A4609" stroke-width="2" stroke-linecap="round"/>
</g>
<g opacity="0.5" filter="url(#filter1_f_13_2443)">
<path d="M19.1667 13.5C19.1667 13.5 19.6667 11.5 21.6667 11.5C23.6667 11.5 24.1667 13.5 24.1667 13.5" stroke="#9A4609" stroke-width="2" stroke-linecap="round"/>
</g>
<path d="M8.66669 13C8.66669 13 8.91669 11 11.1667 11C13.4167 11 13.6667 13 13.6667 13" stroke="#43273B" stroke-width="2" stroke-linecap="round" stroke-linejoin="round"/>
<g opacity="0.26" filter="url(#filter2_f_13_2443)">
<path d="M8.91669 12.75C8.91669 12.75 9.16669 10.75 11.4167 10.75C13.6667 10.75 13.9167 12.75 13.9167 12.75" stroke="white" stroke-width="0.75" stroke-linecap="round" stroke-linejoin="round"/>
</g>
<path d="M19.6667 13C19.6667 13 20.1667 11 22.1667 11C24.1667 11 24.6667 13 24.6667 13" stroke="#43273B" stroke-width="2" stroke-linecap="round" stroke-linejoin="round"/>
<g opacity="0.26" filter="url(#filter3_f_13_2443)">
<path d="M19.9167 12.75C19.9167 12.75 20.1667 10.75 22.4167 10.75C24.6667 10.75 24.9167 12.75 24.9167 12.75" stroke="white" stroke-width="0.75" stroke-linecap="round" stroke-linejoin="round"/>
</g>
<path d="M7.16669 10.5C7.50002 9.5 8.76669 7.5 11.1667 7.5" stroke="url(#paint8_linear_13_2443)" stroke-linecap="round" stroke-linejoin="round"/>
<path d="M26.1667 10.5C25.8334 9.5 24.5667 7.5 22.1667 7.5" stroke="url(#paint9_linear_13_2443)" stroke-linecap="round" stroke-linejoin="round"/>
<path d="M12.2867 21.5H18.7667L20.3867 24.4028V31.1074L12.2866 29L12.2867 21.5Z" fill="url(#paint10_radial_13_2443)"/>
<path d="M16.6667 25C9.66669 25 9.66669 18 9.66669 18H23.6667C23.6667 18 23.6667 25 16.6667 25Z" fill="url(#paint11_radial_13_2443)"/>
<path fill-rule="evenodd" clip-rule="evenodd" d="M10.8172 22C11.7671 23.5684 13.5011 25 16.6667 25C19.8324 25 21.5664 23.5684 22.5163 22H10.8172Z" fill="url(#paint12_linear_13_2443)"/>
<path fill-rule="evenodd" clip-rule="evenodd" d="M10.8172 22C11.7671 23.5684 13.5011 25 16.6667 25C19.8324 25 21.5664 23.5684 22.5163 22H10.8172Z" fill="url(#paint13_radial_13_2443)"/>
<path fill-rule="evenodd" clip-rule="evenodd" d="M16.6667 23.5V25.25C16.6667 25.6642 17.0025 26 17.4167 26H17.5C17.8682 26 18.1667 26.2985 18.1667 26.6667V26.75C18.1667 27.4404 18.7263 28 19.4167 28C20.1071 28 20.6667 27.4404 20.6667 26.75V23.9372C21.4871 23.4017 22.0832 22.7151 22.5163 22H20.6667H19.6667H18.1667C17.3383 22 16.6667 22.6716 16.6667 23.5Z" fill="url(#paint14_radial_13_2443)"/>
</g>
</g>
<defs>
<filter id="filter0_f_13_2443" x="5.66656" y="9" width="10.0002" height="7.00009" filterUnits="userSpaceOnUse" color-interpolation-filters="sRGB">
<feFlood flood-opacity="0" result="BackgroundImageFix"/>
<feBlend mode="normal" in="SourceGraphic" in2="BackgroundImageFix" result="shape"/>
<feGaussianBlur stdDeviation="0.75" result="effect1_foregroundBlur_13_2443"/>
</filter>
<filter id="filter1_f_13_2443" x="16.6664" y="9" width="10.0005" height="7.00024" filterUnits="userSpaceOnUse" color-interpolation-filters="sRGB">
<feFlood flood-opacity="0" result="BackgroundImageFix"/>
<feBlend mode="normal" in="SourceGraphic" in2="BackgroundImageFix" result="shape"/>
<feGaussianBlur stdDeviation="0.75" result="effect1_foregroundBlur_13_2443"/>
</filter>
<filter id="filter2_f_13_2443" x="7.04163" y="8.875" width="8.75012" height="5.75003" filterUnits="userSpaceOnUse" color-interpolation-filters="sRGB">
<feFlood flood-opacity="0" result="BackgroundImageFix"/>
<feBlend mode="normal" in="SourceGraphic" in2="BackgroundImageFix" result="shape"/>
<feGaussianBlur stdDeviation="0.75" result="effect1_foregroundBlur_13_2443"/>
</filter>
<filter id="filter3_f_13_2443" x="18.0416" y="8.875" width="8.75012" height="5.75003" filterUnits="userSpaceOnUse" color-interpolation-filters="sRGB">
<feFlood flood-opacity="0" result="BackgroundImageFix"/>
<feBlend mode="normal" in="SourceGraphic" in2="BackgroundImageFix" result="shape"/>
<feGaussianBlur stdDeviation="0.75" result="effect1_foregroundBlur_13_2443"/>
</filter>
<radialGradient id="paint0_radial_13_2443" cx="0" cy="0" r="1" gradientUnits="userSpaceOnUse" gradientTransform="translate(26.1667 9) rotate(132.839) scale(37.5033)">
<stop stop-color="#FFF478"/>
<stop offset="0.474827" stop-color="#FFB02E"/>
<stop offset="1" stop-color="#F70A8D"/>
</radialGradient>
<radialGradient id="paint1_radial_13_2443" cx="0" cy="0" r="1" gradientUnits="userSpaceOnUse" gradientTransform="translate(26.1667 9) rotate(131.878) scale(38.9487)">
<stop stop-color="#FFF478"/>
<stop offset="0.474827" stop-color="#FFB02E"/>
<stop offset="1" stop-color="#F70A8D"/>
</radialGradient>
<radialGradient id="paint2_radial_13_2443" cx="0" cy="0" r="1" gradientUnits="userSpaceOnUse" gradientTransform="translate(16.6667 12.5) rotate(101.31) scale(17.8466 22.8581)">
<stop offset="0.787821" stop-color="#F59639" stop-opacity="0"/>
<stop offset="0.972509" stop-color="#FF7DCE"/>
</radialGradient>
<radialGradient id="paint3_radial_13_2443" cx="0" cy="0" r="1" gradientUnits="userSpaceOnUse" gradientTransform="translate(18.6667 14) rotate(135) scale(41.0122)">
<stop offset="0.314853" stop-opacity="0"/>
<stop offset="1"/>
</radialGradient>
<radialGradient id="paint4_radial_13_2443" cx="0" cy="0" r="1" gradientUnits="userSpaceOnUse" gradientTransform="translate(16.6667 17) rotate(77.692) scale(28.1469)">
<stop offset="0.507903" stop-color="#7D6133" stop-opacity="0"/>
<stop offset="1" stop-color="#715B32"/>
</radialGradient>
<radialGradient id="paint5_radial_13_2443" cx="0" cy="0" r="1" gradientUnits="userSpaceOnUse" gradientTransform="translate(17.1667 16.5) rotate(55.7131) scale(13.3135 9.65032)">
<stop stop-color="#FFB849"/>
<stop offset="1" stop-color="#FFB847" stop-opacity="0"/>
</radialGradient>
<radialGradient id="paint6_radial_13_2443" cx="0" cy="0" r="1" gradientUnits="userSpaceOnUse" gradientTransform="translate(21.1667 18) rotate(9.86581) scale(11.6726)">
<stop stop-color="#FFA64B"/>
<stop offset="0.900412" stop-color="#FFAE46" stop-opacity="0"/>
</radialGradient>
<radialGradient id="paint7_radial_13_2443" cx="0" cy="0" r="1" gradientUnits="userSpaceOnUse" gradientTransform="translate(18.1667 15) rotate(43.9708) scale(59.0529)">
<stop offset="0.185425" stop-opacity="0"/>
<stop offset="1" stop-opacity="0.4"/>
</radialGradient>
<linearGradient id="paint8_linear_13_2443" x1="7.50002" y1="11.4" x2="7.50002" y2="9.6" gradientUnits="userSpaceOnUse">
<stop offset="0.0299084" stop-color="#524049"/>
<stop offset="1" stop-color="#4A2C42"/>
</linearGradient>
<linearGradient id="paint9_linear_13_2443" x1="25.8334" y1="11.4" x2="25.8334" y2="9.6" gradientUnits="userSpaceOnUse">
<stop offset="0.0299084" stop-color="#524049"/>
<stop offset="1" stop-color="#4A2C42"/>
</linearGradient>
<radialGradient id="paint10_radial_13_2443" cx="0" cy="0" r="1" gradientUnits="userSpaceOnUse" gradientTransform="translate(20.3867 21.5) rotate(128.191) scale(7.63403 5.15729)">
<stop stop-color="#C20AA5"/>
<stop offset="1" stop-color="#C20A78" stop-opacity="0"/>
</radialGradient>
<radialGradient id="paint11_radial_13_2443" cx="0" cy="0" r="1" gradientUnits="userSpaceOnUse" gradientTransform="translate(16.6667 25.5) rotate(-90) scale(7.5 15)">
<stop stop-color="#F70A8D"/>
<stop offset="1" stop-color="#89029C"/>
</radialGradient>
<linearGradient id="paint12_linear_13_2443" x1="16.6667" y1="22" x2="16.6667" y2="25" gradientUnits="userSpaceOnUse">
<stop stop-color="#2962F3"/>
<stop offset="0.160122" stop-color="#3E7AFF"/>
<stop offset="0.253876" stop-color="#4588FF"/>
<stop offset="0.535137" stop-color="#4170FF"/>
<stop offset="1" stop-color="#3E69FF"/>
</linearGradient>
<radialGradient id="paint13_radial_13_2443" cx="0" cy="0" r="1" gradientUnits="userSpaceOnUse" gradientTransform="translate(16.6667 23.5) rotate(90) scale(3 1.74841)">
<stop stop-color="#323FFF"/>
<stop offset="1" stop-color="#323FFF" stop-opacity="0"/>
</radialGradient>
<radialGradient id="paint14_radial_13_2443" cx="0" cy="0" r="1" gradientUnits="userSpaceOnUse" gradientTransform="translate(24.1667 26) rotate(-172.405) scale(7.56637 7.8168)">
<stop offset="0.408311" stop-color="#325CFF"/>
<stop offset="0.574014" stop-color="#4889FF"/>
<stop offset="0.739718" stop-color="#3C6BF7"/>
<stop offset="0.899655" stop-color="#3F72FF"/>
<stop offset="1" stop-color="#3156FE"/>
</radialGradient>
<clipPath id="clip0_13_2443">
<rect width="32" height="32" fill="white" transform="translate(0.666687)"/>
</clipPath>
</defs>
</svg>
