<svg width="33" height="32" viewBox="0 0 33 32" fill="none" xmlns="http://www.w3.org/2000/svg">
<path d="M16.3322 29.9978C25.6666 29.9978 30.3311 23.7303 30.3311 15.9989C30.3311 8.26751 25.6666 2 16.3322 2C6.99768 2 2.33325 8.26751 2.33325 15.9989C2.33325 23.7303 6.99768 29.9978 16.3322 29.9978Z" fill="url(#paint0_radial_13_2504)"/>
<path d="M16.3322 29.9978C25.6666 29.9978 30.3311 23.7303 30.3311 15.9989C30.3311 8.26751 25.6666 2 16.3322 2C6.99768 2 2.33325 8.26751 2.33325 15.9989C2.33325 23.7303 6.99768 29.9978 16.3322 29.9978Z" fill="url(#paint1_radial_13_2504)"/>
<path d="M16.3322 29.9978C25.6666 29.9978 30.3311 23.7303 30.3311 15.9989C30.3311 8.26751 25.6666 2 16.3322 2C6.99768 2 2.33325 8.26751 2.33325 15.9989C2.33325 23.7303 6.99768 29.9978 16.3322 29.9978Z" fill="url(#paint2_radial_13_2504)"/>
<path d="M16.3322 29.9978C25.6666 29.9978 30.3311 23.7303 30.3311 15.9989C30.3311 8.26751 25.6666 2 16.3322 2C6.99768 2 2.33325 8.26751 2.33325 15.9989C2.33325 23.7303 6.99768 29.9978 16.3322 29.9978Z" fill="url(#paint3_radial_13_2504)" fill-opacity="0.6"/>
<path d="M16.3322 29.9978C25.6666 29.9978 30.3311 23.7303 30.3311 15.9989C30.3311 8.26751 25.6666 2 16.3322 2C6.99768 2 2.33325 8.26751 2.33325 15.9989C2.33325 23.7303 6.99768 29.9978 16.3322 29.9978Z" fill="url(#paint4_radial_13_2504)"/>
<path d="M16.3322 29.9978C25.6666 29.9978 30.3311 23.7303 30.3311 15.9989C30.3311 8.26751 25.6666 2 16.3322 2C6.99768 2 2.33325 8.26751 2.33325 15.9989C2.33325 23.7303 6.99768 29.9978 16.3322 29.9978Z" fill="url(#paint5_radial_13_2504)"/>
<path d="M16.3322 29.9978C25.6666 29.9978 30.3311 23.7303 30.3311 15.9989C30.3311 8.26751 25.6666 2 16.3322 2C6.99768 2 2.33325 8.26751 2.33325 15.9989C2.33325 23.7303 6.99768 29.9978 16.3322 29.9978Z" fill="url(#paint6_radial_13_2504)"/>
<path d="M16.3322 29.9978C25.6666 29.9978 30.3311 23.7303 30.3311 15.9989C30.3311 8.26751 25.6666 2 16.3322 2C6.99768 2 2.33325 8.26751 2.33325 15.9989C2.33325 23.7303 6.99768 29.9978 16.3322 29.9978Z" fill="url(#paint7_radial_13_2504)"/>
<path d="M17.3311 11.5006C17.3311 13.9861 19.3461 16.0011 21.8317 16.0011C24.3173 16.0011 26.3322 13.9861 26.3322 11.5006C26.3322 9.01497 24.3173 7 21.8317 7C19.3461 7 17.3311 9.01497 17.3311 11.5006Z" fill="white"/>
<path d="M15.3322 11.5006C15.3322 13.9861 13.3173 16.0011 10.8317 16.0011C8.34602 16.0011 6.33105 13.9861 6.33105 11.5006C6.33105 9.01497 8.34602 7 10.8317 7C13.3173 7 15.3322 9.01497 15.3322 11.5006Z" fill="white"/>
<path d="M11.4533 14.6908C13.2262 14.6908 14.6635 13.2535 14.6635 11.4806C14.6635 9.70773 13.2262 8.27051 11.4533 8.27051C9.68038 8.27051 8.24316 9.70773 8.24316 11.4806C8.24316 13.2535 9.68038 14.6908 11.4533 14.6908Z" fill="#3F2931"/>
<path d="M21.2102 14.6908C19.4373 14.6908 18 13.2535 18 11.4806C18 9.70773 19.4373 8.27051 21.2102 8.27051C22.9831 8.27051 24.4203 9.70773 24.4203 11.4806C24.4203 13.2535 22.9831 14.6908 21.2102 14.6908Z" fill="#3F2931"/>
<path d="M20.9022 17.8433L11.2544 20.5323C10.7514 20.6725 10.4574 21.1938 10.5975 21.6967C10.7377 22.1996 11.259 22.4937 11.7619 22.3535L21.4098 19.6646C21.9127 19.5244 22.2068 19.0031 22.0666 18.5002C21.9265 17.9972 21.4051 17.7032 20.9022 17.8433Z" fill="url(#paint8_linear_13_2504)"/>
<path d="M20.9022 17.8433L11.2544 20.5323C10.7514 20.6725 10.4574 21.1938 10.5975 21.6967C10.7377 22.1996 11.259 22.4937 11.7619 22.3535L21.4098 19.6646C21.9127 19.5244 22.2068 19.0031 22.0666 18.5002C21.9265 17.9972 21.4051 17.7032 20.9022 17.8433Z" fill="url(#paint9_linear_13_2504)"/>
<path d="M20.9022 17.8433L11.2544 20.5323C10.7514 20.6725 10.4574 21.1938 10.5975 21.6967C10.7377 22.1996 11.259 22.4937 11.7619 22.3535L21.4098 19.6646C21.9127 19.5244 22.2068 19.0031 22.0666 18.5002C21.9265 17.9972 21.4051 17.7032 20.9022 17.8433Z" fill="url(#paint10_radial_13_2504)"/>
<g filter="url(#filter0_f_13_2504)">
<path d="M11.4885 21.2632L21.2537 18.5415" stroke="#5C4B51" stroke-width="0.3"/>
</g>
<defs>
<filter id="filter0_f_13_2504" x="10.8482" y="17.797" width="11.0457" height="4.21068" filterUnits="userSpaceOnUse" color-interpolation-filters="sRGB">
<feFlood flood-opacity="0" result="BackgroundImageFix"/>
<feBlend mode="normal" in="SourceGraphic" in2="BackgroundImageFix" result="shape"/>
<feGaussianBlur stdDeviation="0.3" result="effect1_foregroundBlur_13_2504"/>
</filter>
<radialGradient id="paint0_radial_13_2504" cx="0" cy="0" r="1" gradientUnits="userSpaceOnUse" gradientTransform="translate(25.8333 9) rotate(132.839) scale(37.5033)">
<stop stop-color="#FFF478"/>
<stop offset="0.474827" stop-color="#FFB02E"/>
<stop offset="1" stop-color="#F70A8D"/>
</radialGradient>
<radialGradient id="paint1_radial_13_2504" cx="0" cy="0" r="1" gradientUnits="userSpaceOnUse" gradientTransform="translate(25.8333 9) rotate(131.878) scale(38.9487)">
<stop stop-color="#FFF478"/>
<stop offset="0.474827" stop-color="#FFB02E"/>
<stop offset="1" stop-color="#F70A8D"/>
</radialGradient>
<radialGradient id="paint2_radial_13_2504" cx="0" cy="0" r="1" gradientUnits="userSpaceOnUse" gradientTransform="translate(16.3333 12.5) rotate(101.31) scale(17.8466 22.8581)">
<stop offset="0.787821" stop-color="#F59639" stop-opacity="0"/>
<stop offset="0.972509" stop-color="#FF7DCE"/>
</radialGradient>
<radialGradient id="paint3_radial_13_2504" cx="0" cy="0" r="1" gradientUnits="userSpaceOnUse" gradientTransform="translate(18.3333 14) rotate(135) scale(41.0122)">
<stop offset="0.314853" stop-opacity="0"/>
<stop offset="1"/>
</radialGradient>
<radialGradient id="paint4_radial_13_2504" cx="0" cy="0" r="1" gradientUnits="userSpaceOnUse" gradientTransform="translate(16.3333 17) rotate(77.692) scale(28.1469)">
<stop offset="0.507903" stop-color="#7D6133" stop-opacity="0"/>
<stop offset="1" stop-color="#715B32"/>
</radialGradient>
<radialGradient id="paint5_radial_13_2504" cx="0" cy="0" r="1" gradientUnits="userSpaceOnUse" gradientTransform="translate(16.8333 16.5) rotate(55.7131) scale(13.3135 9.65032)">
<stop stop-color="#FFB849"/>
<stop offset="1" stop-color="#FFB847" stop-opacity="0"/>
</radialGradient>
<radialGradient id="paint6_radial_13_2504" cx="0" cy="0" r="1" gradientUnits="userSpaceOnUse" gradientTransform="translate(20.8333 18) rotate(9.86581) scale(11.6726)">
<stop stop-color="#FFA64B"/>
<stop offset="0.900412" stop-color="#FFAE46" stop-opacity="0"/>
</radialGradient>
<radialGradient id="paint7_radial_13_2504" cx="0" cy="0" r="1" gradientUnits="userSpaceOnUse" gradientTransform="translate(17.8333 15) rotate(43.9708) scale(59.0529)">
<stop offset="0.185425" stop-opacity="0"/>
<stop offset="1" stop-opacity="0.4"/>
</radialGradient>
<linearGradient id="paint8_linear_13_2504" x1="16.0783" y1="19.1878" x2="16.5188" y2="20.7683" gradientUnits="userSpaceOnUse">
<stop stop-color="#4B383A"/>
<stop offset="1" stop-color="#53265D"/>
</linearGradient>
<linearGradient id="paint9_linear_13_2504" x1="10.5975" y1="21.6967" x2="11.6812" y2="21.3947" gradientUnits="userSpaceOnUse">
<stop stop-color="#503333"/>
<stop offset="1" stop-color="#503333" stop-opacity="0"/>
</linearGradient>
<radialGradient id="paint10_radial_13_2504" cx="0" cy="0" r="1" gradientUnits="userSpaceOnUse" gradientTransform="translate(21.9861 18.022) rotate(144.953) scale(1.5746 1.22898)">
<stop stop-color="#605052"/>
<stop offset="1" stop-color="#605052" stop-opacity="0"/>
</radialGradient>
</defs>
</svg>
