<svg width="32" height="32" viewBox="0 0 32 32" fill="none" xmlns="http://www.w3.org/2000/svg">
<g filter="url(#filter0_i_13_2475)">
<path d="M15.9989 29.9978C25.3333 29.9978 29.9978 23.7303 29.9978 15.9989C29.9978 8.26751 25.3333 2 15.9989 2C6.66443 2 2 8.26751 2 15.9989C2 23.7303 6.66443 29.9978 15.9989 29.9978Z" fill="url(#paint0_radial_13_2475)"/>
</g>
<path d="M15.9989 29.9978C25.3333 29.9978 29.9978 23.7303 29.9978 15.9989C29.9978 8.26751 25.3333 2 15.9989 2C6.66443 2 2 8.26751 2 15.9989C2 23.7303 6.66443 29.9978 15.9989 29.9978Z" fill="url(#paint1_radial_13_2475)"/>
<path d="M15.9989 29.9978C25.3333 29.9978 29.9978 23.7303 29.9978 15.9989C29.9978 8.26751 25.3333 2 15.9989 2C6.66443 2 2 8.26751 2 15.9989C2 23.7303 6.66443 29.9978 15.9989 29.9978Z" fill="url(#paint2_radial_13_2475)"/>
<g opacity="0.9" filter="url(#filter1_f_13_2475)">
<path style="mix-blend-mode:multiply" d="M22.5146 7.48728L22.5146 7.48729C21.9354 8.06653 21.9354 9.00567 22.5146 9.58492L24.4521 11.5224C25.0314 12.1017 25.9705 12.1017 26.5498 11.5224L26.5498 11.5224C27.129 10.9432 27.129 10.004 26.5498 9.42478L24.6123 7.48728C24.033 6.90803 23.0939 6.90803 22.5146 7.48728Z" fill="url(#paint3_radial_13_2475)"/>
</g>
<path d="M8 22.5C8 21.1193 6.88071 20 5.5 20C4.11929 20 3 21.1193 3 22.5V24.5C3 25.8807 4.11929 27 5.5 27C6.88071 27 8 25.8807 8 24.5V22.5Z" fill="url(#paint4_radial_13_2475)"/>
<path d="M30 6.5C30 5.11929 28.8807 4 27.5 4C26.1193 4 25 5.11929 25 6.5V8.5C25 9.88071 26.1193 11 27.5 11C28.8807 11 30 9.88071 30 8.5V6.5Z" fill="url(#paint5_radial_13_2475)"/>
<g filter="url(#filter2_f_13_2475)">
<path style="mix-blend-mode:multiply" fill-rule="evenodd" clip-rule="evenodd" d="M8.4488 11.9111C8.40733 11.5684 8.65152 11.257 8.9942 11.2155C10.2118 11.0682 10.8097 10.493 11.1217 9.99062C11.2843 9.72889 11.3762 9.47403 11.427 9.28526C11.4522 9.19155 11.4667 9.11626 11.4746 9.06753C11.4785 9.04323 11.4808 9.02578 11.4819 9.0162L11.4828 9.00816C11.5126 8.66627 11.8129 8.41203 12.1555 8.43957C12.4996 8.46723 12.7561 8.76857 12.7284 9.11264L12.1054 9.06256C12.7284 9.11264 12.7284 9.11227 12.7284 9.11264L12.7283 9.11415L12.7282 9.1159L12.7278 9.12008L12.7267 9.13113C12.7259 9.13967 12.7247 9.15056 12.7232 9.16366C12.7201 9.18984 12.7154 9.22492 12.7084 9.26774C12.6946 9.35322 12.6716 9.47044 12.6341 9.60988C12.5595 9.88742 12.425 10.2615 12.1836 10.6501C11.6877 11.4485 10.7676 12.2601 9.14435 12.4565C8.80167 12.4979 8.49026 12.2538 8.4488 11.9111Z" fill="url(#paint6_radial_13_2475)" fill-opacity="0.75"/>
</g>
<path d="M11.3661 8.4375C11.3661 8.4375 11.3661 11.0781 8.44421 11.3281" stroke="url(#paint7_radial_13_2475)" stroke-width="1.25" stroke-linecap="round" stroke-linejoin="round"/>
<g filter="url(#filter3_f_13_2475)">
<path style="mix-blend-mode:multiply" fill-rule="evenodd" clip-rule="evenodd" d="M23.8129 11.9111C23.8544 11.5684 23.6102 11.257 23.2675 11.2155C22.05 11.0682 21.452 10.493 21.14 9.99062C20.9774 9.72889 20.8855 9.47403 20.8347 9.28526C20.8095 9.19155 20.7951 9.11626 20.7872 9.06753C20.7832 9.04323 20.7809 9.02578 20.7798 9.0162L20.7789 9.00816C20.7491 8.66627 20.4488 8.41203 20.1062 8.43957C19.7621 8.46723 19.5056 8.76857 19.5333 9.11264L20.1563 9.06256C19.5333 9.11264 19.5332 9.11227 19.5333 9.11264L19.5334 9.11415L19.5336 9.1159L19.5339 9.12008L19.535 9.13113C19.5358 9.13967 19.537 9.15056 19.5385 9.16366C19.5416 9.18984 19.5463 9.22492 19.5533 9.26774C19.5672 9.35322 19.5901 9.47044 19.6276 9.60988C19.7023 9.88742 19.8367 10.2615 20.0781 10.6501C20.574 11.4485 21.4941 12.2601 23.1174 12.4565C23.4601 12.4979 23.7715 12.2538 23.8129 11.9111Z" fill="url(#paint8_radial_13_2475)" fill-opacity="0.75"/>
</g>
<path d="M20.6317 8.4375C20.6317 8.4375 20.6317 11.0781 23.5536 11.3281" stroke="url(#paint9_radial_13_2475)" stroke-width="1.25" stroke-linecap="round" stroke-linejoin="round"/>
<g filter="url(#filter4_f_13_2475)">
<path d="M19.3697 13.4531C18.1157 14.1118 17.2617 15.4175 17.2617 16.9207C17.2617 19.0874 19.036 20.8437 21.2246 20.8437C23.4133 20.8437 25.1875 19.0874 25.1875 16.9207C25.1875 15.7652 24.6828 14.7264 23.8798 14.0084C23.358 14.1773 22.7995 14.2687 22.219 14.2687C21.1681 14.2687 20.1896 13.969 19.3697 13.4531Z" fill="#FB6E27" fill-opacity="0.75"/>
</g>
<g filter="url(#filter5_f_13_2475)">
<path d="M11.9016 13.4531C13.1555 14.1118 14.0095 15.4175 14.0095 16.9207C14.0095 19.0874 12.2353 20.8437 10.0466 20.8437C7.85799 20.8437 6.08374 19.0874 6.08374 16.9207C6.08374 15.7652 6.58841 14.7264 7.39145 14.0084C7.91328 14.1773 8.47174 14.2687 9.05225 14.2687C10.1031 14.2687 11.0816 13.969 11.9016 13.4531Z" fill="#B24B35"/>
</g>
<path d="M19.5141 12.4531C18.1742 13.1641 17.2617 14.5735 17.2617 16.1959C17.2617 18.5345 19.1575 20.4303 21.4961 20.4303C23.8347 20.4303 25.7305 18.5345 25.7305 16.1959C25.7305 14.9487 25.1912 13.8274 24.3332 13.0525C23.7756 13.2347 23.1789 13.3335 22.5586 13.3335C21.4358 13.3335 20.3902 13.01 19.5141 12.4531Z" fill="white"/>
<path d="M19.9414 18.2193C21.0201 18.2193 21.8945 17.3449 21.8945 16.2662C21.8945 15.1875 21.0201 14.3131 19.9414 14.3131C18.8627 14.3131 17.9883 15.1875 17.9883 16.2662C17.9883 17.3449 18.8627 18.2193 19.9414 18.2193Z" fill="#402931"/>
<path d="M12.4837 12.4531C13.8236 13.1641 14.7361 14.5735 14.7361 16.1959C14.7361 18.5345 12.8403 20.4303 10.5017 20.4303C8.16313 20.4303 6.26733 18.5345 6.26733 16.1959C6.26733 14.9487 6.80657 13.8274 7.66463 13.0525C8.22221 13.2347 8.81892 13.3335 9.43921 13.3335C10.562 13.3335 11.6076 13.01 12.4837 12.4531Z" fill="white"/>
<path d="M12.0564 18.2193C10.9777 18.2193 10.1033 17.3449 10.1033 16.2662C10.1033 15.1875 10.9777 14.3131 12.0564 14.3131C13.1351 14.3131 14.0095 15.1875 14.0095 16.2662C14.0095 17.3449 13.1351 18.2193 12.0564 18.2193Z" fill="#402931"/>
<path d="M17.1755 20.9531H14.8223C13.2759 20.9531 12.0223 22.2067 12.0223 23.7531V23.8406C12.0223 25.387 13.2759 26.6406 14.8223 26.6406H17.1755C18.7219 26.6406 19.9755 25.387 19.9755 23.8406V23.7531C19.9755 22.2067 18.7219 20.9531 17.1755 20.9531Z" fill="url(#paint10_linear_13_2475)"/>
<path d="M15.9999 28.5C19.0481 28.5 19.5343 25.8558 19.6287 25.0937C19.7012 24.4768 19.3746 23.7608 19.019 23.5503C18.6634 23.3399 17.5966 23.1439 15.9999 23.1439C14.4033 23.1439 13.3437 23.3399 12.9808 23.5503C12.6179 23.7608 12.2913 24.4768 12.3711 25.0937C12.4655 25.8558 12.9517 28.5 15.9999 28.5Z" fill="url(#paint11_radial_13_2475)"/>
<g opacity="0.5" filter="url(#filter6_f_13_2475)">
<path d="M17.4401 26.6857C18.1658 26.3228 18.8916 25.597 18.8916 24.5084" stroke="white"/>
</g>
<defs>
<filter id="filter0_i_13_2475" x="2" y="0" width="29.9978" height="29.9978" filterUnits="userSpaceOnUse" color-interpolation-filters="sRGB">
<feFlood flood-opacity="0" result="BackgroundImageFix"/>
<feBlend mode="normal" in="SourceGraphic" in2="BackgroundImageFix" result="shape"/>
<feColorMatrix in="SourceAlpha" type="matrix" values="0 0 0 0 0 0 0 0 0 0 0 0 0 0 0 0 0 0 127 0" result="hardAlpha"/>
<feOffset dx="2" dy="-2"/>
<feGaussianBlur stdDeviation="2"/>
<feComposite in2="hardAlpha" operator="arithmetic" k2="-1" k3="1"/>
<feColorMatrix type="matrix" values="0 0 0 0 0 0 0 0 0 0 0 0 0 0 0 0 0 0 0.08 0"/>
<feBlend mode="normal" in2="shape" result="effect1_innerShadow_13_2475"/>
</filter>
<filter id="filter1_f_13_2475" x="21.0802" y="6.05286" width="6.90405" height="6.90399" filterUnits="userSpaceOnUse" color-interpolation-filters="sRGB">
<feFlood flood-opacity="0" result="BackgroundImageFix"/>
<feBlend mode="normal" in="SourceGraphic" in2="BackgroundImageFix" result="shape"/>
<feGaussianBlur stdDeviation="0.5" result="effect1_foregroundBlur_13_2475"/>
</filter>
<filter id="filter2_f_13_2475" x="7.94421" y="7.93753" width="5.28625" height="5.02356" filterUnits="userSpaceOnUse" color-interpolation-filters="sRGB">
<feFlood flood-opacity="0" result="BackgroundImageFix"/>
<feBlend mode="normal" in="SourceGraphic" in2="BackgroundImageFix" result="shape"/>
<feGaussianBlur stdDeviation="0.25" result="effect1_foregroundBlur_13_2475"/>
</filter>
<filter id="filter3_f_13_2475" x="19.0312" y="7.93753" width="5.28625" height="5.02356" filterUnits="userSpaceOnUse" color-interpolation-filters="sRGB">
<feFlood flood-opacity="0" result="BackgroundImageFix"/>
<feBlend mode="normal" in="SourceGraphic" in2="BackgroundImageFix" result="shape"/>
<feGaussianBlur stdDeviation="0.25" result="effect1_foregroundBlur_13_2475"/>
</filter>
<filter id="filter4_f_13_2475" x="15.2617" y="11.4531" width="11.9258" height="11.3906" filterUnits="userSpaceOnUse" color-interpolation-filters="sRGB">
<feFlood flood-opacity="0" result="BackgroundImageFix"/>
<feBlend mode="normal" in="SourceGraphic" in2="BackgroundImageFix" result="shape"/>
<feGaussianBlur stdDeviation="1" result="effect1_foregroundBlur_13_2475"/>
</filter>
<filter id="filter5_f_13_2475" x="4.08374" y="11.4531" width="11.9258" height="11.3906" filterUnits="userSpaceOnUse" color-interpolation-filters="sRGB">
<feFlood flood-opacity="0" result="BackgroundImageFix"/>
<feBlend mode="normal" in="SourceGraphic" in2="BackgroundImageFix" result="shape"/>
<feGaussianBlur stdDeviation="1" result="effect1_foregroundBlur_13_2475"/>
</filter>
<filter id="filter6_f_13_2475" x="16.2164" y="23.5084" width="4.17517" height="4.62451" filterUnits="userSpaceOnUse" color-interpolation-filters="sRGB">
<feFlood flood-opacity="0" result="BackgroundImageFix"/>
<feBlend mode="normal" in="SourceGraphic" in2="BackgroundImageFix" result="shape"/>
<feGaussianBlur stdDeviation="0.5" result="effect1_foregroundBlur_13_2475"/>
</filter>
<radialGradient id="paint0_radial_13_2475" cx="0" cy="0" r="1" gradientUnits="userSpaceOnUse" gradientTransform="translate(25.5 9) rotate(132.839) scale(37.5033)">
<stop stop-color="#FFF478"/>
<stop offset="0.474827" stop-color="#FFB02E"/>
<stop offset="1" stop-color="#F70A8D"/>
</radialGradient>
<radialGradient id="paint1_radial_13_2475" cx="0" cy="0" r="1" gradientUnits="userSpaceOnUse" gradientTransform="translate(16 12.5) rotate(90) scale(17.8854)">
<stop offset="0.823911" stop-color="#F59639" stop-opacity="0"/>
<stop offset="1" stop-color="#FF63C4"/>
</radialGradient>
<radialGradient id="paint2_radial_13_2475" cx="0" cy="0" r="1" gradientUnits="userSpaceOnUse" gradientTransform="translate(15.9989 35.1875) rotate(-90) scale(30.6875 67.5153)">
<stop offset="0.34375" stop-color="#F59639" stop-opacity="0"/>
<stop offset="1" stop-color="#E73550"/>
</radialGradient>
<radialGradient id="paint3_radial_13_2475" cx="0" cy="0" r="1" gradientUnits="userSpaceOnUse" gradientTransform="translate(23.7099 8.8849) rotate(50.5885) scale(6.42037 2.27261)">
<stop stop-color="#993D29"/>
<stop offset="1" stop-color="#B14B35" stop-opacity="0"/>
</radialGradient>
<radialGradient id="paint4_radial_13_2475" cx="0" cy="0" r="1" gradientUnits="userSpaceOnUse" gradientTransform="translate(7.16667 20.3182) rotate(108.861) scale(7.73342 3.61978)">
<stop stop-color="#5C98FF"/>
<stop offset="0.805982" stop-color="#3D5BF1"/>
<stop offset="0.962238" stop-color="#6065CA"/>
</radialGradient>
<radialGradient id="paint5_radial_13_2475" cx="0" cy="0" r="1" gradientUnits="userSpaceOnUse" gradientTransform="translate(29.1667 4.31818) rotate(108.861) scale(7.73342 3.61978)">
<stop stop-color="#5C98FF"/>
<stop offset="0.805982" stop-color="#3D5BF1"/>
<stop offset="0.962238" stop-color="#6065CA"/>
</radialGradient>
<radialGradient id="paint6_radial_13_2475" cx="0" cy="0" r="1" gradientUnits="userSpaceOnUse" gradientTransform="translate(10.7941 11.1683) rotate(-78.6614) scale(4.595 3.23495)">
<stop offset="0.255208" stop-color="#993D29"/>
<stop offset="1" stop-color="#B14B35" stop-opacity="0"/>
</radialGradient>
<radialGradient id="paint7_radial_13_2475" cx="0" cy="0" r="1" gradientUnits="userSpaceOnUse" gradientTransform="translate(9.06921 9.875) rotate(49.8812) scale(4.02522 9.57068)">
<stop offset="0.137915" stop-color="#694F62"/>
<stop offset="0.398102" stop-color="#482641"/>
</radialGradient>
<radialGradient id="paint8_radial_13_2475" cx="0" cy="0" r="1" gradientUnits="userSpaceOnUse" gradientTransform="translate(21.4677 11.1683) rotate(-101.339) scale(4.595 3.23495)">
<stop offset="0.255208" stop-color="#993D29"/>
<stop offset="1" stop-color="#B14B35" stop-opacity="0"/>
</radialGradient>
<radialGradient id="paint9_radial_13_2475" cx="0" cy="0" r="1" gradientUnits="userSpaceOnUse" gradientTransform="translate(22.9286 9.875) rotate(130.119) scale(4.02522 9.57068)">
<stop offset="0.137915" stop-color="#694F62"/>
<stop offset="0.398102" stop-color="#482641"/>
</radialGradient>
<linearGradient id="paint10_linear_13_2475" x1="15.9989" y1="20.9531" x2="15.9989" y2="26.6406" gradientUnits="userSpaceOnUse">
<stop stop-color="#6D014D"/>
<stop offset="1" stop-color="#750C3F"/>
</linearGradient>
<radialGradient id="paint11_radial_13_2475" cx="0" cy="0" r="1" gradientUnits="userSpaceOnUse" gradientTransform="translate(15.9887 29.4062) rotate(-90) scale(7.07513 12.2996)">
<stop offset="0.135417" stop-color="#FF1C4A"/>
<stop offset="0.619792" stop-color="#FF2B8F"/>
<stop offset="0.755208" stop-color="#BB0773"/>
<stop offset="0.869792" stop-color="#9F0762"/>
</radialGradient>
</defs>
</svg>
